<svg height="512pt" viewBox="0 -76 512 512" width="512pt" xmlns="http://www.w3.org/2000/svg"><path d="m405.96875 0c-57.914062 0-105.027344 47.117188-105.027344 105.03125 0 12.070312-4.65625 23.382812-13.09375 31.832031-8.464844 8.449219-19.773437 13.105469-31.847656 13.105469s-23.382812-4.65625-31.832031-13.09375c-8.453125-8.460938-13.109375-19.773438-13.109375-31.84375 0-57.914062-47.5625-105.03125-106.027344-105.03125-57.914062 0-105.03125 47.117188-105.03125 105.03125 0 67.542969 26.863281 131.597656 75.636719 180.355469 48.117187 48.132812 112.171875 74.644531 180.363281 74.644531s132.246094-26.507812 180.359375-74.640625c48.777344-48.761719 75.640625-112.8125 75.640625-180.359375 0-57.914062-47.566406-105.03125-106.03125-105.03125zm0 0" fill="#ffe1ba"/><path d="m405.96875 0c-57.914062 0-105.027344 47.117188-105.027344 105.03125 0 12.070312-4.65625 23.382812-13.09375 31.832031-8.464844 8.449219-19.773437 13.105469-31.847656 13.105469-.023438 0-.050781 0-.074219 0v210.058594c.023438 0 .050781.003906.074219.003906 68.191406 0 132.246094-26.507812 180.359375-74.640625 48.777344-48.761719 75.640625-112.8125 75.640625-180.359375 0-57.914062-47.566406-105.03125-106.03125-105.03125zm0 0" fill="#ffc473"/></svg>