<?xml version="1.0" standalone="no"?>
<!DOCTYPE svg PUBLIC "-//W3C//DTD SVG 20010904//EN"
 "http://www.w3.org/TR/2001/REC-SVG-20010904/DTD/svg10.dtd">
<svg version="1.0" xmlns="http://www.w3.org/2000/svg"
 width="612.000000pt" height="548.000000pt" viewBox="0 0 612.000000 548.000000"
 preserveAspectRatio="xMidYMid meet">
<metadata>
Created by potrace 1.16, written by Peter Selinger 2001-2019
</metadata>
<g transform="translate(0.000000,548.000000) scale(0.100000,-0.100000)"
fill="#000000" stroke="none">
<path d="M3005 4076 c-27 -7 -88 -32 -134 -55 -47 -22 -94 -41 -104 -41 -22 0
-97 -40 -97 -52 0 -4 13 -8 29 -8 17 0 32 -4 35 -9 3 -4 19 -11 35 -14 30 -6
61 -48 61 -81 0 -23 -35 -37 -84 -35 -49 3 -82 -14 -127 -66 -37 -42 -78 -61
-159 -74 -56 -9 -69 -8 -99 7 -42 22 -56 48 -20 36 51 -17 228 5 249 32 8 9 1
8 -27 -2 -48 -17 -73 -17 -73 -1 0 8 -3 7 -10 -3 -7 -11 -29 -15 -90 -15 -45
0 -84 3 -87 8 -11 19 22 35 90 43 39 4 77 9 82 10 6 1 26 3 45 4 l35 3 -40 6
-40 6 63 23 c34 13 62 26 62 29 0 8 -39 -2 -82 -21 l-38 -16 0 25 c0 19 5 25
21 25 28 0 119 32 119 42 0 11 -2 11 -54 -12 -34 -16 -51 -18 -65 -11 -21 11
-31 -2 -31 -40 0 -14 -7 -19 -25 -19 -30 0 -31 3 -4 49 l21 36 -28 -34 c-15
-18 -41 -39 -58 -46 l-31 -13 48 0 c46 1 67 -6 54 -18 -10 -10 -147 -31 -147
-23 0 4 9 11 20 14 11 4 18 11 14 16 -3 5 -10 6 -16 3 -7 -5 -9 -2 -6 7 24 57
24 56 -3 34 -13 -11 -30 -26 -36 -34 -8 -8 -34 -15 -65 -16 -55 -2 -120 -28
-150 -62 -46 -50 -57 -133 -26 -198 8 -17 7 -18 -4 -4 -12 14 -15 14 -40 0
-35 -21 -81 -78 -73 -91 4 -6 -18 -10 -60 -10 -100 0 -185 -53 -185 -115 0 -8
-8 -19 -18 -24 -10 -5 -27 -28 -37 -50 -15 -35 -20 -39 -33 -28 -13 10 -14 8
-9 -15 9 -35 -1 -58 -24 -58 -10 0 -19 -3 -19 -7 0 -5 -19 -27 -41 -51 -23
-24 -38 -46 -35 -50 4 -3 10 -2 14 4 19 27 130 91 156 90 41 -3 52 -30 18 -47
l-27 -13 44 -6 c39 -4 46 -9 53 -35 6 -22 4 -33 -7 -41 -23 -17 -19 -22 31
-45 82 -39 123 -140 74 -184 -24 -22 -99 -37 -192 -39 l-67 -1 62 -28 c96 -44
166 -69 176 -62 5 3 26 -4 46 -15 19 -11 43 -20 53 -20 9 0 36 -7 59 -15 23
-8 61 -18 84 -21 36 -6 44 -4 60 17 17 22 19 23 19 4 1 -33 17 -52 31 -38 10
10 16 9 30 -3 14 -13 29 -14 68 -9 28 4 53 11 57 16 11 18 24 8 24 -17 0 -23
3 -26 30 -22 16 2 31 1 32 -3 2 -4 26 -9 53 -10 48 -3 50 -2 47 21 -1 14 -16
38 -32 55 -29 30 -33 55 -14 88 6 9 3 8 -8 -1 -12 -9 -22 -10 -35 -4 -25 13
-153 36 -160 29 -3 -4 -14 -2 -24 4 -15 8 -17 6 -12 -8 5 -14 0 -12 -21 6 -14
14 -31 42 -37 63 -5 22 -25 56 -43 76 -19 20 -40 53 -49 73 l-15 36 79 -1 c68
-1 81 2 101 21 21 22 22 23 4 36 -11 8 -32 14 -49 15 -28 1 -29 0 -11 -17 11
-10 25 -16 32 -13 15 5 16 -14 1 -24 -6 -3 -16 -1 -22 5 -6 6 -19 11 -29 11
-10 0 -18 5 -18 10 0 6 -7 10 -15 10 -8 0 -15 -4 -15 -10 0 -5 -22 -10 -49
-10 -52 0 -101 14 -101 28 0 18 108 44 203 49 53 3 97 10 97 14 0 5 -6 18 -12
29 -11 17 -10 22 2 31 12 8 10 9 -10 7 -14 -2 -24 -9 -23 -16 2 -6 -2 -12 -7
-12 -20 0 -9 52 16 77 30 29 28 32 -20 40 -29 5 -44 1 -68 -17 -25 -18 -32
-20 -39 -9 -14 23 -11 28 27 35 34 6 86 2 129 -11 12 -3 28 1 40 10 19 16 19
16 -8 10 -21 -4 -27 -3 -21 6 5 9 2 10 -9 6 -18 -7 -89 14 -88 26 4 33 0 37
-26 31 -16 -4 -34 -14 -41 -22 -11 -14 -14 -13 -29 8 -10 14 -28 35 -41 47
-31 29 -42 71 -28 113 8 26 17 35 33 35 24 1 45 15 22 15 -12 0 -12 2 1 9 10
7 21 3 39 -15 13 -14 27 -20 30 -15 8 12 42 -17 60 -51 17 -32 36 -37 28 -8
-3 11 -1 18 4 15 4 -3 20 12 33 34 14 22 34 42 46 46 11 3 20 12 20 19 0 9 18
12 72 8 39 -2 103 1 143 8 70 12 73 12 112 -13 24 -15 49 -42 60 -67 l21 -41
19 27 c20 27 20 27 53 10 21 -10 47 -14 69 -11 32 5 34 4 14 -6 -27 -14 -28
-22 -7 -40 8 -7 24 -30 35 -51 22 -43 40 -45 50 -7 7 22 7 22 8 2 1 -19 4 -20
34 -11 17 6 38 13 46 15 21 5 3 19 -47 36 -31 11 -42 12 -39 3 3 -7 -6 -13
-24 -14 -29 -2 -29 -2 -29 55 -1 62 -23 112 -36 79 -3 -9 -1 -23 6 -31 10 -12
10 -15 0 -15 -6 0 -14 9 -17 20 -6 24 -35 26 -53 5 -7 -8 -17 -12 -22 -9 -6 4
12 18 38 33 33 18 49 32 49 46 0 11 6 19 13 17 7 -1 2 13 -13 35 -14 21 -25
43 -25 50 0 7 -7 16 -16 21 -10 6 -14 14 -9 22 6 9 9 9 16 -1 9 -14 9 -14 14
51 1 14 10 40 19 58 19 36 48 42 68 13 7 -10 22 -21 34 -25 12 -3 37 -24 57
-45 20 -22 46 -42 57 -46 11 -3 20 -11 20 -16 0 -5 4 -9 10 -9 5 0 7 6 4 14
-3 8 4 16 18 20 22 6 23 7 3 17 -11 6 -40 31 -65 54 -25 24 -64 60 -87 80 -37
32 -41 39 -32 63 10 30 69 81 99 87 11 2 25 7 30 10 6 3 7 -1 4 -9 -10 -27 27
-32 47 -8 9 12 22 22 29 22 6 0 8 5 5 10 -8 13 5 13 25 0 15 -9 16 -13 19 -50
1 -18 4 -19 24 -8 12 7 30 19 39 26 14 12 19 11 37 -7 12 -12 25 -21 31 -21
12 0 73 -58 87 -84 8 -14 17 -17 36 -12 69 17 27 145 -52 162 -14 3 -64 17
-111 31 -100 31 -214 38 -285 19z m-733 -336 c-3 -21 1 -36 14 -48 11 -9 26
-26 34 -36 14 -18 13 -18 -10 -13 -14 4 -5 -3 19 -14 66 -32 195 -31 276 1 33
13 72 28 88 34 15 6 27 14 27 18 0 5 6 8 14 8 8 0 16 7 20 15 3 8 11 15 17 15
16 0 -16 -49 -54 -82 -23 -20 -33 -24 -39 -15 -5 8 -8 8 -8 1 0 -21 -94 -49
-198 -60 -66 -7 -137 11 -175 44 -26 23 -30 9 -4 -15 31 -29 80 -43 151 -44
43 0 55 -3 41 -9 -32 -14 -86 -11 -135 7 -100 37 -129 98 -91 196 14 35 19 34
13 -3z"/>
<path d="M3531 3756 c-9 -10 -11 -20 -5 -24 5 -4 11 -16 13 -27 6 -36 20 -53
55 -65 19 -6 38 -20 41 -31 8 -24 40 -45 83 -54 l32 -7 -4 77 c-2 42 -6 79
-10 82 -3 4 -6 -1 -6 -11 0 -10 -5 -14 -11 -10 -6 3 -9 15 -6 25 3 11 -3 29
-14 42 -16 19 -20 20 -29 7 -9 -13 -11 -13 -20 0 -8 12 -11 13 -19 1 -6 -9
-11 -10 -15 -2 -16 25 -28 10 -22 -25 7 -33 6 -35 -16 -32 -18 2 -24 11 -28
37 -5 31 -6 33 -19 17z"/>
<path d="M3906 3511 c-4 -5 0 -12 6 -14 7 -3 3 -6 -9 -6 -11 -1 -43 -19 -71
-40 -38 -30 -52 -49 -61 -84 -21 -72 10 -157 62 -173 12 -3 36 -16 52 -29 17
-12 50 -32 74 -45 44 -22 46 -22 98 -6 29 9 53 21 53 27 0 5 7 9 15 9 8 0 15
8 15 18 0 30 38 64 68 60 20 -2 32 -14 49 -47 28 -55 38 -61 75 -50 16 4 53 9
81 10 29 1 58 6 64 12 9 6 15 4 19 -7 3 -9 14 -16 23 -16 12 0 13 2 3 9 -9 5
-12 24 -10 52 2 33 7 45 22 47 10 2 16 0 12 -6 -7 -12 43 -113 61 -125 7 -4
13 -13 13 -19 0 -6 6 -19 14 -27 7 -9 26 -50 42 -91 16 -41 34 -86 41 -99 6
-14 10 -28 7 -33 -3 -4 1 -5 9 -2 9 3 13 13 9 26 -4 18 -2 20 21 14 25 -6 27
-4 27 26 0 18 -4 40 -10 48 -7 11 -11 9 -19 -14 -16 -40 -33 -28 -55 38 -15
49 -16 60 -5 67 10 6 21 1 37 -17 12 -14 22 -19 22 -12 0 28 -69 156 -95 176
-33 27 -57 29 -48 5 5 -13 2 -15 -11 -10 -10 4 -20 7 -22 7 -2 0 -4 6 -4 14 0
8 -6 17 -12 19 -8 3 -5 6 6 6 14 1 16 4 7 15 -6 7 -9 21 -5 30 3 9 1 16 -5 16
-7 0 -15 10 -20 22 -10 27 -133 117 -210 154 -49 24 -57 25 -94 14 -31 -9 -59
-9 -116 -1 -42 6 -102 14 -133 17 -32 3 -58 10 -58 15 0 12 -27 12 -34 0z"/>
<path d="M3011 3207 c-25 -46 -25 -48 -6 -41 8 4 15 1 15 -5 0 -19 -73 -2 -93
21 -11 13 -34 22 -60 25 -23 2 -54 8 -69 13 -40 13 -94 1 -119 -26 -14 -15
-34 -24 -51 -24 -16 0 -27 -4 -23 -9 3 -6 14 -8 25 -6 15 3 20 -2 20 -20 0
-13 -5 -25 -12 -27 -7 -3 -6 -7 5 -11 12 -5 17 -1 17 12 0 53 34 67 69 30 17
-19 23 -19 59 -8 40 11 42 11 79 -21 21 -18 44 -44 51 -57 12 -22 10 -27 -21
-56 -49 -46 -67 -59 -68 -50 0 4 -4 -2 -9 -14 -5 -13 -29 -37 -54 -54 -43 -31
-43 -32 -25 -50 19 -19 21 -19 52 -2 18 10 36 24 40 31 17 26 70 72 83 72 8 0
14 4 14 10 0 18 39 31 59 21 21 -12 43 -64 35 -85 -3 -8 -1 -29 4 -48 9 -35 0
-77 -20 -89 -6 -4 5 -16 28 -28 46 -24 41 -27 -9 -6 l-36 15 5 -33 c5 -27 1
-35 -26 -52 -17 -11 -44 -42 -61 -68 -19 -31 -35 -47 -44 -43 -11 4 -12 -1 -3
-25 5 -16 7 -36 4 -44 -3 -9 0 -15 9 -15 10 0 15 10 15 30 0 26 7 33 48 53 26
13 79 45 119 70 80 52 120 65 152 48 18 -10 19 -14 8 -26 -8 -7 -33 -19 -55
-26 -23 -7 -42 -16 -42 -21 0 -4 -5 -8 -11 -8 -6 0 -22 -9 -36 -19 -13 -11
-31 -17 -39 -14 -8 3 -14 -1 -14 -9 0 -19 -36 -48 -60 -48 -11 0 -20 -7 -20
-15 0 -26 37 -17 123 30 46 25 88 45 93 45 10 0 -63 -47 -88 -56 -9 -3 -19
-12 -22 -20 -11 -28 36 -13 107 35 104 70 168 100 239 112 35 5 78 13 96 16
20 3 32 11 32 22 1 15 1 15 10 -1 10 -16 50 -14 50 3 0 16 28 10 32 -7 2 -13
6 -12 25 5 12 12 29 21 38 21 8 0 15 5 15 10 0 6 5 10 10 10 6 0 10 -7 10 -15
0 -20 20 -19 36 3 11 14 13 14 14 2 0 -23 -38 -44 -55 -30 -10 8 -19 8 -34 -2
-26 -16 -26 -24 -2 -31 14 -3 18 -1 14 9 -3 8 0 14 6 14 6 0 11 -7 11 -16 0
-13 3 -14 15 -4 17 14 36 5 28 -15 -7 -21 7 -19 23 3 12 15 13 15 14 0 0 -9
-6 -18 -12 -21 -18 -6 2 -38 30 -48 16 -6 22 -5 22 6 0 8 5 15 10 15 6 0 10
-7 10 -15 0 -8 9 -15 20 -15 11 0 20 4 20 9 0 5 10 9 23 9 12 0 36 2 52 5 17
3 34 6 38 6 11 1 -26 50 -75 101 -37 38 -37 39 -22 69 22 43 48 55 108 47 176
-22 238 -33 244 -44 4 -6 24 -18 45 -27 25 -10 37 -22 37 -35 0 -11 5 -20 11
-20 7 0 9 11 6 28 -3 15 -2 34 3 42 7 12 13 11 33 -8 13 -12 32 -22 42 -22 16
0 15 3 -6 23 -45 41 -111 136 -113 162 -1 18 -5 23 -18 19 -23 -7 -44 28 -58
94 -8 33 -17 52 -26 52 -22 0 -16 -40 16 -104 17 -32 30 -60 30 -61 0 -1 -16
0 -36 1 l-36 3 7 -39 7 -39 -33 12 c-19 7 -42 20 -52 30 -21 21 -82 121 -68
113 5 -3 9 9 10 27 1 53 4 67 13 67 4 0 8 9 8 20 0 24 -37 27 -78 6 -15 -7
-56 -21 -91 -29 -36 -9 -69 -21 -75 -27 -5 -5 -16 -10 -24 -10 -8 0 -33 -8
-56 -19 -23 -10 -53 -24 -68 -30 -16 -6 -28 -17 -28 -26 0 -8 -7 -15 -16 -15
-8 0 -13 4 -9 10 3 5 -7 5 -25 -2 -18 -6 -34 -17 -37 -25 -3 -8 -11 -12 -19
-9 -16 6 -38 -20 -28 -35 4 -8 3 -9 -4 -5 -12 7 -52 -70 -52 -101 0 -10 -4
-23 -8 -30 -11 -18 -52 21 -52 49 0 65 -30 115 -142 229 -69 72 -127 122 -157
137 -25 12 -37 19 -26 16 72 -22 165 -10 165 22 0 12 -34 20 -64 15 -4 -1 -15
6 -23 16 -14 17 -14 17 -9 1 7 -23 5 -22 -38 3 -19 11 -33 26 -30 32 2 7 -6
12 -20 12 -19 0 -30 -10 -45 -38z"/>
<path d="M4426 3097 c3 -8 23 -27 44 -41 31 -20 42 -37 59 -89 12 -36 40 -88
61 -117 31 -41 37 -56 28 -67 -6 -7 -8 -16 -5 -19 6 -6 67 23 67 32 0 10 -43
89 -70 129 -15 22 -42 68 -60 102 -28 51 -39 62 -64 66 -17 2 -39 7 -49 12
-13 5 -16 4 -11 -8z"/>
<path d="M4381 3048 c-7 -11 -19 -17 -27 -14 -22 8 -17 -1 29 -62 31 -40 46
-70 50 -101 3 -24 10 -48 16 -54 7 -7 7 1 0 27 -6 21 -8 40 -6 42 6 7 47 -60
47 -77 0 -8 18 -29 40 -47 35 -29 41 -31 47 -16 4 10 2 19 -5 22 -7 2 -12 8
-12 12 0 5 -18 35 -40 66 -22 32 -47 80 -55 106 -16 54 -43 105 -60 112 -6 2
-17 -5 -24 -16z"/>
<path d="M1352 2945 c-23 -50 -15 -69 42 -111 32 -23 58 -49 61 -64 6 -24 21
-40 38 -40 4 0 -2 13 -14 29 -21 29 -23 71 -4 129 6 18 4 22 -14 22 -14 0 -21
6 -21 20 0 15 -7 20 -28 20 -15 0 -33 5 -38 10 -7 7 -14 2 -22 -15z"/>
</g>
</svg>
