<svg id="Capa_1" enable-background="new 0 0 512 512" height="512" viewBox="0 0 512 512" width="512" xmlns="http://www.w3.org/2000/svg"><g><g><path clip-rule="evenodd" d="m372.557 492.311c40.836-14.399 73.25-42.771 97.468-77.549 19.964-28.712 19.199-28.401-3.346-40.277l-15.966-8.361-57.086-29.988-59.298-31.178-49.23-25.85c12.081 88.603-37.745 146.566-97.922 159.207 14.179 18.395 32.272 33.758 53.428 44.868 40.921 21.486 88.422 24.519 131.952 9.128z" fill="#ffda8f" fill-rule="evenodd"/></g><g><path clip-rule="evenodd" d="m25.335 318.904c27.933 97.758 100.304 132.309 161.842 119.413 60.177-12.641 110.003-70.604 97.922-159.207-.794-5.754-1.843-11.649-3.148-17.658-1.078-4.818-2.297-9.722-3.743-14.71-3.516-12.301-11.911-31.575-23.623-53.91-41.544-79.222-124.862-197.218-180.331-181.402-71.123 20.294-64.913 251.495-48.919 307.474z" fill="#fff3da" fill-rule="evenodd"/></g><g><path clip-rule="evenodd" d="m285.1 279.109 49.23 25.85 59.298 31.178 57.086 29.988c27.082-51.529 80.453-276.579 14.973-310.96-50.308-26.445-153.675 68.79-211.101 137.666 11.712 22.335 20.106 41.609 23.623 53.91 3.204 11.195 5.473 21.994 6.891 32.368z" fill="#fff3da" fill-rule="evenodd"/></g><g><path d="m470.34 46.313c-26.278-13.814-64.461-2.405-113.486 33.904-42.587 31.541-80.01 71.59-100.424 95.04-14.295-25.905-32.147-54.5-51.479-80.71-36.36-49.299-89.029-105.401-133.441-92.733-44.417 12.675-59.512 88.121-64.353 149.181-5.393 68.022.246 141.546 8.563 170.656 14.25 49.867 40.822 87.762 76.841 109.589 21.54 13.053 45.358 19.718 69.433 19.718 7.034 0 14.091-.588 21.119-1.734 14.664 17.676 32.407 32.068 52.839 42.813 25.175 13.229 52.517 19.963 80.444 19.963 10.675 0 21.441-.985 32.196-2.967 5.431-1.001 9.022-6.215 8.021-11.646-1.001-5.432-6.218-9.019-11.646-8.021-34.437 6.348-68.919 1.15-99.709-15.03-15.175-7.98-28.673-18.237-40.294-30.573 32.811-11.212 59.47-34.506 75.538-66.198 12.136-23.936 17.552-51.393 16.198-81.069l32.979 17.315 132.339 69.522 1.193.628c4.109 2.162 8.673 4.564 10.756 6.095-1.548 3.746-7.369 12.117-12.152 18.996-11.861 17.051-25.347 31.842-40.085 43.96-4.265 3.508-4.88 9.809-1.372 14.074 1.976 2.405 4.841 3.649 7.729 3.649 2.235 0 4.484-.746 6.345-2.276 16.155-13.284 30.892-29.43 43.801-47.989 11.958-17.198 17.961-25.831 15.62-35.422-2.118-8.677-9.761-12.699-21.33-18.786l-8.668-4.554c13.694-31.538 31.186-95.164 38.973-156.231 7.749-60.758 8.4-137.694-32.488-159.164zm-277.438 380.279c-2.42.692-4.873 1.296-7.352 1.823-.32.052-.639.119-.955.202-54.987 11.198-122.776-18.435-149.645-112.461-7.84-27.44-13.073-97.784-7.856-163.582 3.501-44.152 11.071-78.81 21.806-101.591-.039.496-.078.991-.114 1.479-1.633 22.059-.806 51.548 2.458 87.647 5.816 64.341 18.267 135.149 26.469 163.853 1.255 4.392 5.258 7.255 9.61 7.255.909 0 1.834-.125 2.752-.387 5.31-1.517 8.385-7.052 6.868-12.362-7.756-27.146-19.72-95.027-25.524-157.359-3.174-34.082-4.173-63.192-2.889-84.183.541-8.844 1.433-15.53 2.441-20.592l76.646 268.28c1.255 4.392 5.258 7.255 9.61 7.255.909 0 1.834-.125 2.752-.387 5.31-1.517 8.385-7.051 6.868-12.362l-76.644-268.264c3.528 3.766 7.815 8.97 12.941 16.19 12.177 17.148 26.703 42.397 42.011 73.017 27.988 55.987 53.687 119.953 61.446 147.111 1.517 5.31 7.049 8.387 12.362 6.868 5.31-1.517 8.385-7.052 6.868-12.362-8.205-28.715-35.033-95.421-64.071-153.118-16.296-32.38-31.169-57.86-44.206-75.731-.273-.374-.552-.754-.832-1.133 21.142 13.688 45.858 39.092 72.136 74.72 39.179 53.121 71.895 115.624 79.736 143.07 28.221 98.757-19.454 161.034-75.692 177.104zm73.603-232.39c48.715-57.358 109.38-110.751 153.475-127.883-14.535 12.972-31.85 31.71-51.526 55.77-30.573 37.385-62.109 82.011-82.981 114.637-3.96-11.229-10.499-25.935-18.968-42.524zm216.487 8.748c-7.49 58.745-23.964 119.362-36.864 149.446l-39.172-20.579c12.103-25.285 29.02-68.08 43.069-109.287 1.782-5.227-1.011-10.909-6.237-12.691-5.232-1.783-10.909 1.01-12.692 6.237-15.044 44.126-31.358 84.262-41.868 106.427l-50.25-26.399-44.757-23.499c-.498-3.103-1.062-6.225-1.698-9.365 18.831-31.279 54.788-83.438 89.657-126.34 31.989-39.358 51.992-57.502 63.85-65.844l-82.04 156.007c-2.57 4.888-.692 10.934 4.196 13.504 4.89 2.572 10.935.692 13.504-4.196l87.335-166.075c17.336 18.947 22.455 66.081 13.967 132.654z"/><path d="m162.44 337.994c-3.905 3.905-3.905 10.237 0 14.142l.028.028c1.949 1.949 4.499 2.922 7.05 2.922 2.559 0 5.121-.98 7.077-2.936 3.905-3.905 3.891-10.251-.014-14.156-3.906-3.905-10.235-3.905-14.141 0z"/><path d="m385.215 476.31c-4.94 2.47-6.942 8.476-4.472 13.416 1.752 3.504 5.283 5.529 8.952 5.529 1.503 0 3.029-.34 4.464-1.058l.057-.028c4.94-2.47 6.914-8.462 4.444-13.402-2.471-4.939-8.508-6.926-13.445-4.457z"/></g></g></svg>